<svg width="512" height="512" viewBox="0 0 512 512" fill="none" xmlns="http://www.w3.org/2000/svg">
<rect width="512" height="512" rx="256" fill="#000814"/>
<path d="M177.057 165.455H213.534V287.159C213.534 298.409 211.006 308.182 205.949 316.477C200.949 324.773 193.989 331.165 185.068 335.653C176.148 340.142 165.778 342.386 153.96 342.386C143.449 342.386 133.903 340.54 125.324 336.847C116.801 333.097 110.04 327.415 105.04 319.801C100.04 312.131 97.5682 302.5 97.625 290.909H134.358C134.472 295.511 135.409 299.46 137.17 302.756C138.989 305.994 141.46 308.494 144.585 310.256C147.767 311.96 151.517 312.812 155.835 312.812C160.381 312.812 164.216 311.847 167.341 309.915C170.523 307.926 172.938 305.028 174.585 301.222C176.233 297.415 177.057 292.727 177.057 287.159V165.455ZM274.131 340H234.585L294.841 165.455H342.398L402.568 340H363.023L319.301 205.341H317.938L274.131 340ZM271.659 271.392H365.068V300.199H271.659V271.392Z" fill="#FFC300"/>
</svg>
